<svg width="25" height="42" viewBox="0 0 25 42" fill="none" xmlns="http://www.w3.org/2000/svg">
<path d="M20.8333 0H4.16667C3.0616 0 2.00179 0.438987 1.22039 1.22039C0.438987 2.00179 0 3.0616 0 4.16667V37.5C0 38.6051 0.438987 39.6649 1.22039 40.4463C2.00179 41.2277 3.0616 41.6667 4.16667 41.6667H20.8333C21.9384 41.6667 22.9982 41.2277 23.7796 40.4463C24.561 39.6649 25 38.6051 25 37.5V4.16667C25 3.0616 24.561 2.00179 23.7796 1.22039C22.9982 0.438987 21.9384 0 20.8333 0ZM14.5833 39.5833H10.4167V37.5H14.5833V39.5833ZM20.8333 35.4167H4.16667V6.25H20.8333V35.4167Z" fill="#62E1BA"/>
</svg>
